<?xml version="1.0" encoding="utf-8"?>
<!-- Generator: Adobe Illustrator 27.2.0, SVG Export Plug-In . SVG Version: 6.00 Build 0)  -->
<svg version="1.1" id="Layer_1" xmlns="http://www.w3.org/2000/svg" xmlns:xlink="http://www.w3.org/1999/xlink" x="0px" y="0px"
	 viewBox="0 0 512 512" style="enable-background:new 0 0 512 512;" xml:space="preserve">
<style type="text/css">
	.st0{fill:#F5E200;}
	.st1{fill:#0056B3;}
	.st2{fill:url(#SVGID_1_);}
</style>
<g>
	<g>
		<path class="st0" d="M355.2,394.5L256,493.7l-99.2-99.1c23-3.9,44.7-13.3,63.3-27.3l35.8,35.8l35.8-35.8
			C310.4,381.3,332.1,390.6,355.2,394.5z"/>
	</g>
	<g>
		<path class="st1" d="M355.2,117.5c-23,3.9-44.7,13.3-63.3,27.3L256,108.9l-35.8,35.8c-18.6-14-40.3-23.3-63.3-27.3L256,18.3
			L355.2,117.5z"/>
	</g>
	<linearGradient id="SVGID_1_" gradientUnits="userSpaceOnUse" x1="1.1892" y1="256" x2="510.8108" y2="256">
		<stop  offset="0" style="stop-color:#99FF48"/>
		<stop  offset="1" style="stop-color:#36B333"/>
	</linearGradient>
	<path class="st2" d="M486,182.1c-25-33-64.6-52.6-106-52.6c-4.2,0-8.3,0.2-12.4,0.6c-24,2.2-46.6,10.8-65.8,24.8
		c-8.6,6.3-16.5,13.6-23.5,21.9L256,200.2l-22.4-23.5c-7-8.3-14.9-15.7-23.5-21.9c-19.2-14-41.9-22.6-65.8-24.8
		c-4.1-0.4-8.2-0.6-12.4-0.6c-41.4,0-81,19.7-106,52.6c-33,43.5-33,104.3,0,147.9c25,33,64.6,52.6,106,52.6c4.2,0,8.3-0.2,12.4-0.6
		c24-2.2,46.6-10.8,65.8-24.8c8.6-6.3,16.5-13.6,23.5-21.9l22.4-23.5l22.4,23.5c7,8.3,14.9,15.7,23.5,21.9
		c19.2,14,41.9,22.6,65.8,24.8c4.1,0.4,8.2,0.6,12.4,0.6c41.4,0,81-19.7,106-52.6C519.1,286.4,519.1,225.6,486,182.1z M87.2,283.5
		c-12.3-16.2-12.3-38.8,0-55c10.6-13.9,27.3-22.2,44.7-22.2c16.8,0,32.6,7.4,43.3,20.4l0.9,1.1l26.8,28.2l-26.8,28.2l-0.9,1.1
		c-10.7,13-26.5,20.4-43.3,20.4C114.5,305.7,97.8,297.4,87.2,283.5z M424.8,283.5c-10.5,13.9-27.3,22.2-44.7,22.2
		c-16.8,0-32.6-7.4-43.3-20.4l-0.9-1.1L309.1,256l26.8-28.2l0.9-1.1c10.7-13,26.5-20.4,43.3-20.4c17.5,0,34.2,8.3,44.7,22.2
		C437.1,244.7,437.1,267.3,424.8,283.5z"/>
</g>
</svg>
