<?xml version="1.0" encoding="utf-8"?>
<!-- Generator: Adobe Illustrator 27.2.0, SVG Export Plug-In . SVG Version: 6.00 Build 0)  -->
<svg version="1.1" id="Layer_1" xmlns="http://www.w3.org/2000/svg" xmlns:xlink="http://www.w3.org/1999/xlink" x="0px" y="0px"
	 viewBox="0 0 512 512" style="enable-background:new 0 0 512 512;" xml:space="preserve">
<style type="text/css">
	.st0{fill:#FFFFFF;stroke:#000000;stroke-width:8.5624;stroke-miterlimit:10;}
	
		.st1{clip-path:url(#SVGID_00000047021467927050051390000009745678460507456948_);fill:#FFFFFF;stroke:#000000;stroke-width:8.5624;stroke-miterlimit:10;}
</style>
<g>
	<circle cx="256" cy="256" r="256"/>
	<g>
		<g>
			<path class="st0" d="M323.5,426c-27.5,0-53.2-10.6-72.5-29.9L115.9,261C96.6,241.7,86,215.9,86,188.5c0-27.5,10.6-53.2,29.9-72.5
				S161,86,188.5,86c27.5,0,53.2,10.6,72.5,29.9L396.1,251c19.3,19.3,29.9,45.1,29.9,72.5c0,27.5-10.6,53.2-29.9,72.5
				C376.8,415.4,351,426,323.5,426z M188.5,126c-16,0-32,6.1-44.2,18.3l0,0c-24.4,24.4-24.4,64,0,88.4l135.1,135.1
				c24.4,24.4,64,24.4,88.4,0c24.4-24.4,24.4-64,0-88.4L232.6,144.3C220.5,132.1,204.5,126,188.5,126z"/>
		</g>
		<path class="st0" d="M188.5,426c-27.5,0-53.2-10.6-72.5-29.9C96.6,376.8,86,351,86,323.5c0-27.5,10.6-53.2,29.9-72.5L251,115.9
			C270.3,96.6,296.1,86,323.5,86c27.5,0,53.2,10.6,72.5,29.9S426,161,426,188.5c0,27.5-10.6,53.2-29.9,72.5L261,396.1
			C241.7,415.4,215.9,426,188.5,426z M323.5,126c-16,0-32,6.1-44.2,18.3L144.3,279.4c-24.4,24.4-24.4,64,0,88.4h0
			c24.4,24.4,64,24.4,88.4,0l135.1-135.1c24.4-24.4,24.4-64,0-88.4C355.6,132.1,339.5,126,323.5,126z"/>
		<g>
			<defs>
				<path id="SVGID_1_" d="M79.7,79.7v352.6h352.6V79.7H79.7z M264,399.1c-2.8,2.8-5.8,5.4-8.8,7.9c-2.8-2.3-5.4-4.7-7.9-7.2
					L220,372.5c3.4-2.2,6.7-4.8,9.7-7.8l27.1-27.1l26.4,26.4c2.7,2.7,5.7,5.1,8.8,7.2L264,399.1z M282.4,147.3l-27.1,27.1L228.9,148
					c-2.7-2.7-5.7-5.1-8.8-7.2l27.9-27.9c2.8-2.8,5.8-5.4,8.8-7.9c2.8,2.3,5.4,4.6,7.9,7.2l27.3,27.3
					C288.6,141.7,285.4,144.3,282.4,147.3z"/>
			</defs>
			<clipPath id="SVGID_00000083810936293700575650000016655402377028307865_">
				<use xlink:href="#SVGID_1_"  style="overflow:visible;"/>
			</clipPath>
			
				<path style="clip-path:url(#SVGID_00000083810936293700575650000016655402377028307865_);fill:#FFFFFF;stroke:#000000;stroke-width:8.5624;stroke-miterlimit:10;" d="
				M323.5,426c-27.5,0-53.2-10.6-72.5-29.9L115.9,261C96.6,241.7,86,215.9,86,188.5c0-27.5,10.6-53.2,29.9-72.5S161,86,188.5,86
				c27.5,0,53.2,10.6,72.5,29.9L396.1,251c19.3,19.3,29.9,45.1,29.9,72.5c0,27.5-10.6,53.2-29.9,72.5C376.8,415.4,351,426,323.5,426
				z M188.5,126c-16,0-32,6.1-44.2,18.3l0,0c-24.4,24.4-24.4,64,0,88.4l135.1,135.1c24.4,24.4,64,24.4,88.4,0
				c24.4-24.4,24.4-64,0-88.4L232.6,144.3C220.5,132.1,204.5,126,188.5,126z"/>
		</g>
	</g>
</g>
</svg>
