<?xml version="1.0" encoding="utf-8"?>
<!-- Generator: Adobe Illustrator 27.2.0, SVG Export Plug-In . SVG Version: 6.00 Build 0)  -->
<svg version="1.1" id="Layer_1" xmlns="http://www.w3.org/2000/svg" xmlns:xlink="http://www.w3.org/1999/xlink" x="0px" y="0px"
	 viewBox="0 0 512 512" style="enable-background:new 0 0 512 512;" xml:space="preserve">
<style type="text/css">
	.st0{fill:#F5E200;}
	.st1{fill:#0056B3;}
	.st2{fill:url(#SVGID_1_);}
</style>
<g>
	<g>
		<path class="st0" d="M333.4,364.1L256,441.5l-77.4-77.4c18-3.1,34.9-10.4,49.4-21.3l28,28l28-28
			C298.5,353.8,315.4,361.1,333.4,364.1z"/>
	</g>
	<g>
		<path class="st1" d="M333.4,147.9c-18,3.1-34.9,10.4-49.4,21.3l-28-28l-28,28c-14.5-10.9-31.4-18.2-49.4-21.3L256,70.5
			L333.4,147.9z"/>
	</g>
	<linearGradient id="SVGID_1_" gradientUnits="userSpaceOnUse" x1="57.1324" y1="256" x2="454.8676" y2="256">
		<stop  offset="0" style="stop-color:#99FF48"/>
		<stop  offset="1" style="stop-color:#36B333"/>
	</linearGradient>
	<path class="st2" d="M435.5,198.3c-19.5-25.7-50.4-41.1-82.7-41.1c-3.2,0-6.4,0.2-9.6,0.5c-18.7,1.7-36.4,8.4-51.4,19.3
		c-6.7,4.9-12.9,10.6-18.4,17.1L256,212.5l-17.4-18.3c-5.5-6.5-11.6-12.2-18.4-17.1c-15-10.9-32.7-17.6-51.4-19.3
		c-3.2-0.3-6.4-0.5-9.6-0.5c-32.3,0-63.2,15.4-82.7,41.1c-25.8,34-25.8,81.4,0,115.4c19.5,25.7,50.4,41.1,82.7,41.1
		c3.2,0,6.4-0.1,9.6-0.5c18.7-1.7,36.4-8.4,51.4-19.3c6.7-4.9,12.9-10.6,18.4-17.1l17.4-18.3l17.4,18.3c5.5,6.5,11.7,12.2,18.4,17.1
		c15,10.9,32.7,17.6,51.4,19.3c3.2,0.3,6.4,0.5,9.6,0.5c32.3,0,63.2-15.3,82.7-41.1C461.3,279.7,461.3,232.3,435.5,198.3z
		 M124.3,277.5c-9.6-12.6-9.6-30.3,0-42.9c8.2-10.8,21.3-17.3,34.9-17.3c13.1,0,25.5,5.8,33.8,16l0.7,0.8l20.9,22l-20.9,22l-0.7,0.8
		c-8.3,10.1-20.7,16-33.8,16C145.6,294.8,132.5,288.3,124.3,277.5z M387.7,277.5c-8.2,10.8-21.3,17.3-34.9,17.3
		c-13.1,0-25.5-5.8-33.8-16l-0.7-0.8l-20.9-22l20.9-22l0.7-0.8c8.3-10.1,20.7-16,33.8-16c13.6,0,26.7,6.5,34.9,17.3
		C397.3,247.2,397.3,264.8,387.7,277.5z"/>
</g>
</svg>
